<?xml version="1.0" encoding="iso-8859-1"?>
<!-- Uploaded to: SVG Repo, www.svgrepo.com, Generator: SVG Repo Mixer Tools -->
<svg fill="#000000" height="800px" width="800px" version="1.1" id="Layer_1" xmlns="http://www.w3.org/2000/svg" xmlns:xlink="http://www.w3.org/1999/xlink" 
	 viewBox="0 0 512 512" xml:space="preserve">
<g>
	<g>
		<path d="M421.788,126.467c-2.491-3.54-7.38-4.391-10.919-1.9c-3.54,2.491-4.391,7.379-1.9,10.919
			c17.651,25.085,26.231,57.559,26.231,99.28c0,29.755-11.841,48.014-38.321,59.022h-46.889c9.219-14,13.738-33.505,13.738-59.022
			c0-50.005-6.373-88.163-19.481-116.657c-6.964-15.137-15.799-27.323-26.435-36.552c28.714,5.897,52.224,16.345,70.233,31.281
			c3.331,2.763,8.271,2.303,11.035-1.029c2.763-3.331,2.302-8.272-1.029-11.035c-18.507-15.35-41.992-26.382-70.193-33.039
			c1.187-3.996,1.807-8.096,1.807-12.275c0-15.303-7.998-29.516-22.522-40.025C293.385,5.483,275.221,0,255.999,0
			c-19.218,0-37.379,5.483-51.139,15.438c-14.526,10.51-22.526,24.724-22.526,40.025c0,4.156,0.612,8.234,1.786,12.208
			C102.433,86.855,61.126,142.822,61.126,234.768c0,34.207,14.166,57.627,43.246,71.4l19.172,198.748
			c0.388,4.018,3.764,7.084,7.8,7.084H380.67c4.036,0,7.414-3.067,7.8-7.084l10.085-104.599c0.415-4.308-2.741-8.138-7.049-8.552
			c-4.304-0.412-8.137,2.741-8.552,7.049l-9.402,97.514h-25.859l15.411-186.862h28.465l-5.116,53.06
			c-0.415,4.307,2.741,8.137,7.049,8.551c4.309,0.414,8.138-2.741,8.552-7.049l5.58-57.863
			c29.075-13.773,43.239-37.192,43.239-71.397C450.874,189.707,441.36,154.282,421.788,126.467z M255.999,15.673
			c31.977,0,57.992,17.85,57.992,39.79c0,3.105-0.535,6.167-1.58,9.151c-17.261-2.949-36.073-4.439-56.412-4.439
			c-20.402,0-39.212,1.466-56.432,4.383c-1.033-2.966-1.56-6.009-1.56-9.096C198.008,33.523,224.022,15.673,255.999,15.673z
			 M76.799,234.768c0-86.759,38.587-137.344,117.544-153.344c-10.707,9.244-19.593,21.476-26.592,36.688
			c-13.108,28.492-19.481,66.651-19.481,116.656c0,25.517,4.519,45.023,13.738,59.022H115.12
			C88.64,282.782,76.799,264.522,76.799,234.768z M138.462,496.327l-18.026-186.862h28.464l15.411,186.862H138.462z
			 M180.038,496.327l-15.411-186.862h33.699l10.123,186.862H180.038z M248.167,496.327h-24.021l-10.123-186.862h34.144V496.327z
			 M287.86,496.327h-24.021V309.464h34.143L287.86,496.327z M331.967,496.327h-28.411l10.122-186.862h33.7L331.967,496.327z
			 M329.325,293.791H182.674c-12.761-10.829-18.73-29.682-18.73-59.023c0-47.033,6.072-84.078,18.046-110.106
			c15.112-32.845,39.321-48.812,74.009-48.812s58.897,15.967,74.009,48.813c11.974,26.027,18.046,63.072,18.046,110.106
			C348.055,264.109,342.086,282.963,329.325,293.791z"/>
	</g>
</g>
<g>
	<g>
		<circle cx="128.919" cy="145.241" r="7.837"/>
	</g>
</g>
<g>
	<g>
		<circle cx="216.722" cy="138.627" r="7.837"/>
	</g>
</g>
<g>
	<g>
		<circle cx="236.752" cy="187.601" r="7.837"/>
	</g>
</g>
<g>
	<g>
		<circle cx="266.02" cy="156.212" r="7.837"/>
	</g>
</g>
<g>
	<g>
		<circle cx="398.168" cy="145.241" r="7.837"/>
	</g>
</g>
<g>
	<g>
		<circle cx="394.971" cy="181.938" r="7.837"/>
	</g>
</g>
<g>
	<g>
		<circle cx="308.61" cy="146.463" r="7.837"/>
	</g>
</g>
<g>
	<g>
		<circle cx="288.747" cy="197.611" r="7.837"/>
	</g>
</g>
<g>
	<g>
		<circle cx="128.919" cy="183.944" r="7.837"/>
	</g>
</g>
</svg>